<?xml version="1.0" encoding="utf-8"?>
<!-- Generator: Adobe Illustrator 25.2.1, SVG Export Plug-In . SVG Version: 6.00 Build 0)  -->
<svg version="1.1" xmlns="http://www.w3.org/2000/svg" xmlns:xlink="http://www.w3.org/1999/xlink" x="0px" y="0px"
	 viewBox="0 0 252 248" style="enable-background:new 0 0 252 248;" xml:space="preserve">
<style type="text/css">
	.st0{display:none;}
	.st1{display:inline;fill:none;stroke:#000000;stroke-width:10;stroke-miterlimit:10;}
	.st2{display:inline;}
	.st3{fill:none;stroke:#000000;stroke-width:10;stroke-linecap:round;stroke-miterlimit:10;}
	.st4{display:inline;fill:none;stroke:#000000;stroke-width:10;stroke-linecap:round;stroke-miterlimit:10;}
	.st5{display:inline;fill:none;stroke:#000000;stroke-width:8;stroke-miterlimit:10;}
	.st6{display:inline;fill:none;stroke:#000000;stroke-width:7;stroke-miterlimit:10;}
	.st7{display:inline;fill:none;stroke:#000000;stroke-width:14;stroke-linecap:round;stroke-miterlimit:10;}
	.st8{fill:none;stroke:#000000;stroke-width:10;stroke-miterlimit:10;}
	.st9{fill:none;stroke:#000000;stroke-width:5;stroke-miterlimit:10;}
	.st10{display:inline;fill:none;stroke:#000000;stroke-width:4;stroke-miterlimit:10;}
	.st11{fill:none;stroke:#000000;stroke-width:7;stroke-miterlimit:10;}
</style>
<g id="mic_0" class="st0">
	
		<image style="display:inline;overflow:visible;" width="252" height="248" xlink:href="../pngs/mic0.png"  transform="matrix(1 0 0 1 -0.2421 0.7895)">
	</image>
</g>
<g id="map_0" class="st0">
	
		<image style="display:inline;overflow:visible;" width="252" height="248" xlink:href="../pngs/map0.png"  transform="matrix(1 0 0 1 -0.2421 -0.7263)">
	</image>
</g>
<g id="journal" class="st0">
	
		<image style="display:inline;overflow:visible;" width="252" height="248" xlink:href="../pngs/journal0.png"  transform="matrix(1 0 0 1 -1 -1.4842)">
	</image>
</g>
<g id="j" class="st0">
	<path class="st1" d="M245.1,5.1c0,0-54.1-1-83.4,10.6c-40.3,16-36.4,19.7-36.4,19.7l-0.5,197.1c0,0,22.3-16.9,41.4-22.2
		c43.5-12.1,80.3-9.6,80.3-9.6L245.1,5.1z"/>
</g>
<g id="j_1_" class="st0">
	<path class="st1" d="M123.8,35.9c0,0-20.7-16.7-44.5-22.2C38.4,4.1,4.6,3.6,4.6,3.6v196c0,0,40.5,2.4,61.1,6.1
		c36.9,6.6,62.7,31.3,62.7,31.3"/>
</g>
<g id="j_2_" class="st0">
	<line class="st1" x1="123.8" y1="242.1" x2="123.8" y2="228.4"/>
</g>
<g id="j_3_" class="st0">
	<g class="st2">
		<path class="st3" d="M153.6,72.8c0,0,14.1-7.6,32.8-10.6s33.9-3.5,33.9-3.5"/>
		<path class="st3" d="M155.1,107.8c0,0,14.1-7.6,32.8-10.6s33.9-3.5,33.9-3.5"/>
		<path class="st3" d="M153.3,145c0,0,13.9-8,32.5-11.6c18.6-3.6,33.7-4.6,33.7-4.6"/>
		<path class="st3" d="M153.5,178.3c0,0,14.3-7.4,33-10.1s33.9-3,33.9-3"/>
	</g>
	<path class="st4" d="M91.5,71.6c0,0-13.6-7.3-31.3-9.9C42.4,59.1,28,58.9,28,58.9"/>
	<path class="st4" d="M92.9,106.6c0,0-13.6-7.3-31.4-9.9C43.8,94.1,29.4,94,29.4,94"/>
	<path class="st4" d="M91.5,143.8c0,0-13.4-7.7-31.1-10.9c-17.7-3.2-32.1-3.8-32.1-3.8"/>
	<path class="st4" d="M92.1,177.1c0,0-13.7-7-31.5-9.4c-17.8-2.3-32.2-2.3-32.2-2.3"/>
</g>
<g id="ms" class="st0">
	<path class="st1" d="M69.7,12.2c11.5-9.2,47-6.1,68.7-6.1s64.6-0.5,80.8-0.5c16.2,0,22.2,11.1,24.3,18.7c2,7.6,1,13.6,1,13.6h-51
		c0,0,3,155.6,0,173.3c-1.4,8.2-7.6,28.3-28.8,30.3c-16.6,1.6-35.4-11.1-34.9-28.3s26.8-32.8,32.8-32.8s-105.6,0-105.6,0
		s-2-135.9,0.5-146.5C60.4,22.3,67.2,14.2,69.7,12.2z"/>
</g>
<g id="ms_1_" class="st0">
	<path class="st1" d="M220.3,5.7c-9.7,0.1-25.9,7.5-26.9,27.7c-1,20.2,0.8,39.8,0.8,39.8"/>
	<line class="st4" x1="91" y1="58.1" x2="155.6" y2="58.1"/>
	<line class="st4" x1="90.8" y1="89" x2="155.5" y2="89"/>
	<line class="st4" x1="90.8" y1="119" x2="155.5" y2="119"/>
	<line class="st4" x1="90.8" y1="150" x2="155.5" y2="150"/>
	<path class="st4" d="M58.1,180.9c-18.2,0-52.5-1.5-52.5,27.8c0,31.8,23.7,32.3,45,32.3s108.1,0,108.1,0"/>
</g>
<g id="Layer_11" class="st0">
	
		<image style="display:inline;overflow:visible;" width="252" height="248" xlink:href="../pngs/map.png"  transform="matrix(1 0 0 1 -1 -1.4842)">
	</image>
</g>
<g id="mp" class="st0">
	<polygon class="st2" points="148.6,35.4 149.1,117.3 157.1,111.7 157.1,33.4 	"/>
	<polygon class="st2" points="148.6,218.3 149.1,237 154.1,239 168.3,234.5 160.2,227.9 156.6,230.4 157.1,225.9 	"/>
	<polygon class="st2" points="224.3,14.7 225.4,101.1 233.4,105.1 233.4,7.6 	"/>
	<polygon class="st2" points="227.9,2.3 221.8,14.2 224.3,16.7 233.4,7.6 	"/>
</g>
<g id="mp_1_" class="st0">
	<polyline class="st1" points="229.4,6.6 153.1,33.9 77.8,8.6 3.5,33.9 3,234 2.5,236.5 76.8,208.7 153.6,234.5 	"/>
</g>
<g id="mp_2_" class="st0">
	<line class="st1" x1="77.3" y1="8.1" x2="77.3" y2="207.7"/>
</g>
<g id="mp_3_" class="st0">
	<path class="st5" d="M202.1,235c0,0,38.2-49,39.4-71.7c1-18.7-17.7-38.4-39.9-38.4c-20.7,0-39.5,14.1-39.9,36.9
		C161.2,190.5,202.1,235,202.1,235z"/>
</g>
<g id="mp_4_" class="st0">
	<ellipse class="st6" cx="202.4" cy="165.6" rx="16.6" ry="16"/>
</g>
<g id="Layer_18" class="st0">
	
		<image style="display:inline;overflow:visible;" width="252" height="248" xlink:href="../pngs/sound.png"  transform="matrix(1 0 0 1 1.052632e-02 3.157895e-02)">
	</image>
</g>
<g id="mic" class="st0">
	<path class="st1" d="M73.8,59.4c0-28.7,23.3-52,52-52s52,23.3,52,52"/>
	<path class="st1" d="M177.9,125.4c0,28.7-23.3,52-52,52s-52-23.3-52-52"/>
	<path class="st4" d="M221.8,114.4c0,55.2-43.1,100-96.3,100s-96.3-44.8-96.3-100"/>
</g>
<g id="mic_1_" class="st0">
	<polyline class="st4" points="104.6,124.3 73.8,124.3 73.8,58.6 103.6,58.6 	"/>
	<polyline class="st4" points="148,58.6 177.9,58.6 177.9,124.3 148,124.3 	"/>
</g>
<g id="mic_2_" class="st0">
	<line class="st4" x1="147" y1="90" x2="177.9" y2="90"/>
	<line class="st4" x1="73.6" y1="90" x2="104.3" y2="90"/>
	<line class="st4" x1="125.3" y1="214.6" x2="125.3" y2="242.2"/>
</g>
<g id="Layer_22" class="st0">
	
		<image style="display:inline;overflow:visible;" width="252" height="248" xlink:href="../pngs/archive.png"  transform="matrix(1 0 0 1 0.5053 -0.9789)">
	</image>
</g>
<g id="Layer_23" class="st0">
	<g class="st2">
		<path class="st3" d="M7,65.7V24.6c0-8.2,6.8-15,15-15h207.7c8.2,0,15,6.7,15,15v41.1"/>
	</g>
</g>
<g id="Layer_24" class="st0">
	<g class="st2">
		<path class="st3" d="M228.4,69.1v154.5c0,8.2-6.8,15-15,15H38.8c-8.3,0-15-6.8-15-15V69.1"/>
	</g>
</g>
<g id="Layer_33">
</g>
<g id="Layer_34">
</g>
<g id="Layer_35">
</g>
<g id="Layer_36">
</g>
<g id="Layer_25" class="st0">
	<line class="st4" x1="7" y1="65.7" x2="244.1" y2="66.2"/>
	<line class="st7" x1="83.9" y1="117.7" x2="168.3" y2="117.7"/>
</g>
<g id="Layer_26" class="st0">
	
		<image style="display:inline;overflow:visible;" width="252" height="248" xlink:href="../pngs/book.png"  transform="matrix(1 0 0 1 0.5158 3.157895e-02)">
	</image>
</g>
<g id="bk" class="st0">
	<g class="st2">
		<path class="st3" d="M71.3,193h139.6c8.2,0,15-6.8,15-15V23.1c0-8.2-6.8-15-15-15H71.3"/>
	</g>
</g>
<g id="bk_1_" class="st0">
	<g class="st2">
		<path class="st8" d="M82.9,238.5H53.3c-15.4,0-28-12.6-28-28V35.6c0-15.4,12.6-27.9,28-27.8l29.1,0.3"/>
	</g>
</g>
<g id="bk_2_" class="st0">
	<path class="st1" d="M83.1,193H45.7c0,0-19.2,2.5-19.7,20.2"/>
</g>
<g id="bk_3_" class="st0">
	<line class="st4" x1="71.3" y1="238.5" x2="226.9" y2="238"/>
</g>
<g id="bk_4_" class="st0">
	<line class="st1" x1="70.7" y1="7.6" x2="70.7" y2="193"/>
	<line class="st4" x1="102.6" y1="68.2" x2="191.6" y2="68.2"/>
	<line class="st4" x1="102.6" y1="115.2" x2="191.6" y2="115.2"/>
	<line class="st1" x1="210.2" y1="191.5" x2="209.2" y2="237"/>
</g>
<g id="Layer_31" class="st0">
	
		<image style="display:inline;overflow:visible;" width="252" height="248" xlink:href="../pngs/conference.png"  transform="matrix(1 0 0 1 0.5053 0.5368)">
	</image>
</g>
<g id="Layer_32" class="st0">
	<g class="st2">
		<g>
			<path class="st8" d="M92.5,107.7V86.2c0-9.9,8.1-18,18-18h31.2c9.9,0,18,8.1,18,18v21.9"/>
		</g>
		<line class="st3" x1="92.5" y1="108.2" x2="159.2" y2="108.2"/>
		<ellipse class="st3" cx="127.1" cy="30.8" rx="24" ry="23.2"/>
	</g>
</g>
<g id="Layer_32_copy" class="st0">
	<g class="st2">
		<g>
			<path class="st8" d="M179.5,179.7v-21.4c0-9.9,8.1-18,18-18h31.2c9.9,0,18,8.1,18,18v21.9"/>
		</g>
		<line class="st3" x1="179.5" y1="180.2" x2="246.2" y2="180.2"/>
		<ellipse class="st3" cx="214.1" cy="102.8" rx="24" ry="23.2"/>
	</g>
</g>
<g id="Layer_32_copy_3" class="st0">
	<g class="st2">
		<g>
			<path class="st8" d="M5.5,179.7v-21.4c0-9.9,8.1-18,18-18h31.2c9.9,0,18,8.1,18,18v21.9"/>
		</g>
		<line class="st3" x1="5.5" y1="180.2" x2="72.2" y2="180.2"/>
		<ellipse class="st3" cx="40.1" cy="102.8" rx="24" ry="23.2"/>
	</g>
</g>
<g id="Layer_32_copy_2" class="st0">
	<g class="st2">
		<g>
			<path class="st8" d="M92.5,237.7v-21.4c0-9.9,8.1-18,18-18h31.2c9.9,0,18,8.1,18,18v21.9"/>
		</g>
		<line class="st3" x1="92.5" y1="238.2" x2="159.2" y2="238.2"/>
		<ellipse class="st3" cx="127.1" cy="160.8" rx="24" ry="23.2"/>
	</g>
</g>
<g id="ms_0" class="st0">
	
		<image style="display:inline;overflow:visible;" width="252" height="248" xlink:href="../pngs/ms0.png"  transform="matrix(1 0 0 1 0.5158 -0.7263)">
	</image>
</g>
<g id="db0" class="st0">
	
		<image style="display:inline;overflow:visible;" width="252" height="248" xlink:href="../pngs/database.png"  transform="matrix(1 0 0 1 0.5158 3.157895e-02)">
	</image>
	
		<image style="display:inline;overflow:visible;" width="252" height="248" xlink:href="../pngs/db0.png"  transform="matrix(1 0 0 1 0.5158 0.5368)">
	</image>
</g>
<g id="db" class="st0">
	
		<image style="display:inline;overflow:visible;" width="252" height="248" xlink:href="../pngs/database.png"  transform="matrix(1 0 0 1 0.5158 0.5368)">
	</image>
</g>
<g id="db_1_" class="st0">
	<g class="st2">
		<path class="st8" d="M108.6,201.6H24.6c-11,0-20-9-20-20V26.1c0-11,9-20,20-20h190.9c11,0,20,9,20,20v85.1"/>
	</g>
	<ellipse class="st1" cx="182.2" cy="173.3" rx="42.7" ry="42"/>
	<line class="st4" x1="214.9" y1="204.9" x2="245.3" y2="235.2"/>
	<line class="st1" x1="4.1" y1="52.6" x2="233.4" y2="52.6"/>
</g>
<g id="db_2_" class="st0">
	<g class="st2">
		<path class="st9" d="M221.3,33.5c0,4.4-3.6,8-8,8H93.9c-4.4,0-8-3.6-8-8v-1.7c0-4.4,3.6-8,8-8h119.4c4.4,0,8,3.6,8,8V33.5z"/>
	</g>
	<ellipse class="st10" cx="25" cy="32.6" rx="6.3" ry="8.1"/>
	<ellipse class="st10" cx="65" cy="32.6" rx="6.3" ry="8.1"/>
	<ellipse class="st10" cx="45" cy="32.6" rx="6.3" ry="8.1"/>
</g>
<g id="Layer_44" class="st0">
	
		<image style="display:inline;overflow:visible;" width="252" height="248" xlink:href="../pngs/dataset.png"  transform="matrix(1 0 0 1 -0.4947 3.157895e-02)">
	</image>
</g>
<g id="data_1_" class="st0">
	<rect x="198.6" y="33.9" class="st1" width="29.3" height="209.7"/>
	<rect x="139.6" y="118.8" class="st1" width="29.3" height="124.8"/>
	<rect x="82.6" y="83.9" class="st1" width="29.3" height="159.6"/>
	<rect x="22.6" y="162.7" class="st1" width="29.3" height="80.8"/>
	<path class="st1" d="M-0.5,241.5"/>
</g>
<g id="data" class="st0">
	<line class="st1" x1="-0.5" y1="243.5" x2="252.6" y2="243.5"/>
</g>
<g id="eq_6_" class="st0">
	
		<image style="display:inline;overflow:visible;" width="252" height="248" xlink:href="../pngs/eqipment.png"  transform="matrix(1 0 0 1 0.5158 0.5368)">
	</image>
</g>
<g id="eq_5_" class="st0">
	<g class="st2">
		<path class="st8" d="M39.9,179.9c0,0,0,14.7,0,32.6s22.5,32.6,50,32.6h65.2c27.5,0,50-14.6,50-32.3s0-32.3,0-32.3"/>
	</g>
</g>
<g id="eq_4_" class="st0">
	<g class="st2">
		<path class="st8" d="M56.1,179.9c0,0,0,10.9,0,24.3s13.5,24.3,30,24.3H157c16.5,0,30-10.9,30-24.3s0-24.3,0-24.3"/>
	</g>
</g>
<g id="eq_3_" class="st0">
	<g class="st2">
		<path class="st8" d="M30.8,160.7v16.1c0,2.8,2.2,5,5,5h22.8c2.8,0,5-2.2,5-5v-16.1"/>
	</g>
	<g class="st2">
		<path class="st8" d="M178.8,160.7v16.1c0,2.8,2.2,5,5,5h22.8c2.8,0,5-2.2,5-5v-15.6"/>
	</g>
</g>
<g id="eq_2_" class="st0">
	<g class="st2">
		<path class="st8" d="M87.5,157.2c0,2.8-2.2,5-5,5H13.6c-2.8,0-5-2.2-5-5V60.1c0-2.8,2.2-5,5-5h68.8c2.8,0,5,2.2,5,5V157.2z"/>
	</g>
	<g class="st2">
		<path class="st8" d="M246.6,157.2c0,2.8-2.2,5-5,5h-90.1c-2.8,0-5-2.2-5-5V75.8c0-2.8,2.2-5,5-5h90.1c2.8,0,5,2.2,5,5V157.2z"/>
	</g>
</g>
<g id="eq_1_" class="st0">
	<g class="st2">
		<path class="st8" d="M18.2,54.6v-47c0-1.7,1.3-3,3-3h53.1c1.7,0,3,1.3,3,3v47"/>
	</g>
	<g class="st2">
		<path class="st8" d="M156.2,70.8V7.6c0-1.7,1.4-3,3-3h75.3c1.7,0,3,1.3,3,3v62.7"/>
	</g>
</g>
<g id="eq" class="st0">
	<g class="st2">
		<path class="st11" d="M188.5,43.3c0,1.6-1.4,3-3,3h-12.2c-1.7,0-3-1.4-3-3V31.1c0-1.6,1.3-3,3-3h12.2c1.6,0,3,1.4,3,3V43.3z"/>
	</g>
	<g class="st2">
		<path class="st11" d="M221.5,43.3c0,1.6-1.4,3-3,3h-12.2c-1.7,0-3-1.4-3-3V31.1c0-1.6,1.3-3,3-3h12.2c1.6,0,3,1.4,3,3V43.3z"/>
	</g>
</g>
<g id="Layer_54" class="st0">
	
		<image style="display:inline;overflow:visible;" width="252" height="248" xlink:href="../pngs/gov-doc.png"  transform="matrix(1 0 0 1 -0.4947 3.157895e-02)">
	</image>
</g>
<g id="sea_6_" class="st0">
	<path class="st4" d="M180.7,16.5C219.5,36.3,246,76.5,246,123c0,66-53.5,119.5-119.5,119.5S7,189,7,123C7,75.9,34.2,35.2,73.8,15.7
		"/>
</g>
<g id="sea_5_" class="st0">
	<path class="st4" d="M161.1,106.7c11.8,10.1,19.3,25.1,19.3,41.9c0,30.4-24.7,55.1-55.1,55.1S70.3,179,70.3,148.6
		c0-16.5,7.3-31.3,18.8-41.4"/>
</g>
<g id="sea_4_" class="st0">
	<path class="st1" d="M160.3,106.8C178.7,95.2,191,74.7,191,51.3c0-12.1-3.3-23.4-9-33.2"/>
	<path class="st4" d="M92.2,107.6"/>
	<path class="st4" d="M69.4,17.8c-5.9,9.8-9.2,21.3-9.2,33.5c0,22.8,11.7,42.9,29.4,54.6"/>
</g>
<g id="sea_3_" class="st0">
	<line class="st4" x1="125.3" y1="5.6" x2="126.3" y2="201.6"/>
	<g class="st2">
		<line class="st3" x1="15" y1="80.5" x2="45.8" y2="109.6"/>
		<line class="st3" x1="8.9" y1="127.6" x2="44.5" y2="161.2"/>
	</g>
	<g class="st2">
		<line class="st3" x1="210.5" y1="161.8" x2="241.3" y2="132.7"/>
		<line class="st3" x1="204.4" y1="114.7" x2="237.5" y2="83.4"/>
	</g>
</g>
<g id="sea_2_" class="st0">
	<line class="st4" x1="93" y1="148.6" x2="157.2" y2="148.6"/>
</g>
<g id="sea_1_" class="st0">
	<line class="st4" x1="102.4" y1="171.3" x2="147.8" y2="125.9"/>
</g>
<g id="sea" class="st0">
	<line class="st4" x1="102.4" y1="125.9" x2="147.8" y2="171.3"/>
</g>
<g id="bld" class="st0">
	
		<image style="display:inline;overflow:visible;" width="252" height="248" xlink:href="../pngs/gov-doc2.png"  transform="matrix(1 0 0 1 1.052632e-02 0.5368)">
	</image>
</g>
<g id="bld_1_">
	<g>
		<path class="st3" d="M235.5,240.6c0,1.7-1.4,3-3,3H18.2c-1.6,0-3-1.3-3-3v-14.2c0-1.6,1.4-3,3-3h214.3c1.6,0,3,1.4,3,3V240.6z"/>
	</g>
	<g>
		<path class="st3" d="M229.4,74.8c0,1.1-0.9,2-2,2H23.7c-1.1,0-2-0.9-2-2V60.6c0-1.1,0.9-2,2-2h203.7c1.1,0,2,0.9,2,2V74.8z"/>
	</g>
	<rect x="37.4" y="100.1" class="st3" width="29.8" height="100"/>
	<rect x="110.4" y="100.1" class="st3" width="29.8" height="100"/>
	<rect x="183.4" y="100.1" class="st3" width="29.8" height="100"/>
</g>
<g id="bld_2_">
	<g>
		<path class="st3" d="M73.3,98c0,1.1-0.9,2-2,2H31.8c-1.1,0-2-0.9-2-2V81c0-1.1,0.9-2,2-2h39.5c1.1,0,2,0.9,2,2V98z"/>
	</g>
	<g>
		<path class="st3" d="M73.3,220.9c0,1.1-0.9,2-2,2H32.8c-1.1,0-2-0.9-2-2v-17.7c0-1.1,0.9-2,2-2h38.4c1.1,0,2,0.9,2,2V220.9z"/>
	</g>
	<g>
		<path class="st3" d="M220.3,98c0,1.1-0.9,2-2,2h-39.5c-1.1,0-2-0.9-2-2V81c0-1.1,0.9-2,2-2h39.5c1.1,0,2,0.9,2,2V98z"/>
	</g>
	<g>
		<path class="st3" d="M220.3,220.9c0,1.1-0.9,2-2,2h-38.4c-1.1,0-2-0.9-2-2v-17.7c0-1.1,0.9-2,2-2h38.4c1.1,0,2,0.9,2,2V220.9z"/>
	</g>
	<g>
		<path class="st3" d="M146.3,98c0,1.1-0.9,2-2,2h-39.5c-1.1,0-2-0.9-2-2V81c0-1.1,0.9-2,2-2h39.5c1.1,0,2,0.9,2,2V98z"/>
	</g>
	<g>
		<path class="st3" d="M146.3,220.9c0,1.1-0.9,2-2,2h-38.4c-1.1,0-2-0.9-2-2v-17.7c0-1.1,0.9-2,2-2h38.4c1.1,0,2,0.9,2,2V220.9z"/>
	</g>
</g>
<g id="bld_3_">
	<polyline class="st3" points="28.3,58.6 28.8,38.4 124.8,6.1 220.8,39.9 220.8,58.6 	"/>
</g>
</svg>
