<?xml version="1.0" encoding="utf-8"?>
<!-- Generator: Adobe Illustrator 26.2.1, SVG Export Plug-In . SVG Version: 6.00 Build 0)  -->
<svg version="1.1" id="Layer_1" xmlns="http://www.w3.org/2000/svg" xmlns:xlink="http://www.w3.org/1999/xlink" x="0px" y="0px"
	 viewBox="0 0 60.1 77.1" style="enable-background:new 0 0 60.1 77.1;" xml:space="preserve">
<style type="text/css">
	.st0{fill:#EC6F23;}
	.st1{fill:#010101;}
	.st2{fill:#FFFFFF;}
</style>
<path class="st0" d="M16.6,62.6c3.8,4.8,8.2,9.1,13.2,12.8c4.9-3.7,9.4-8,13.2-12.8L29.7,49.7L16.6,62.6z"/>
<path class="st0" d="M10.4,53.4l19.3-18.6l19.4,18.6c3.3-5.8,5.7-12.1,7.2-18.7c0.1-0.3,0.1-0.6,0.2-0.9H3
	C4.5,40.7,7,47.3,10.4,53.4z"/>
<path class="st0" d="M10.4,53.4c1.8,3.2,3.9,6.3,6.2,9.2l13.2-12.8l13.2,12.8c2.3-2.9,4.3-6,6.2-9.2L29.7,34.8L10.4,53.4z"/>
<path class="st1" d="M29.7,49.4L16.6,62.2c-2.2-2.8-4.1-5.7-5.9-8.8l19-18.3l19,18.3c-1.7,3.1-3.7,6-5.9,8.8L29.7,49.4z"/>
<path class="st1" d="M29.7,35.5l18.7,18c-1.7,2.9-3.5,5.7-5.6,8.3L30.1,49.4L29.7,49l-0.3,0.3L16.6,61.8c-2.1-2.6-3.9-5.4-5.6-8.3
	L29.7,35.5 M29.7,34.8L10.4,53.4c1.8,3.2,3.9,6.3,6.2,9.2l13.2-12.8l13.2,12.8c2.3-2.9,4.3-6,6.2-9.2L29.7,34.8L29.7,34.8z"/>
<path class="st1" d="M57.7,14c-2.3,0.7-4.8,1.1-7.2,1.1c-8.5,0-16.3-4.3-20.7-11.6C25.3,10.7,17.5,15.1,9,15.1
	c-2.4,0-4.8-0.4-7.2-1.1C1.3,20.6,1.7,27.3,3,33.8h53.4C57.8,27.3,58.2,20.6,57.7,14z"/>
<path class="st2" d="M42.9,22.2v-2.3h-1.4v-1.6l-1.5-0.4H40v-1.4c0,0-0.5,0.6-2.8,0.6c-2.2,0-3.5-0.7-5.2-0.7
	c-0.8-0.1-1.7,0.3-2.2,1v0.5h-0.1v-0.5c-0.5-0.7-1.3-1-2.2-1c-1.7,0-3,0.7-5.2,0.7c-2.3,0-2.7-0.6-2.7-0.6V18h-0.1L18,18.3v1.6h-1.4
	v2.3H18v3.7h-1.4v2.3H18V31c1.5,0.2,3,0.3,4.5,0.4c2.6,0,4-0.4,5.7-0.4v0.7c0.5,0.2,1,0.3,1.6,0.3c0.6,0,1.1-0.1,1.6-0.3v-0.7
	c1.7,0,3.1,0.4,5.7,0.4c1.5,0,3-0.1,4.5-0.4v-2.8h1.4v-2.3h-1.4v-3.7H42.9z"/>
<path class="st1" d="M40.2,17.8l0-1.7l-0.4,0.4c0,0-0.5,0.5-2.6,0.5l-2.8-0.4L32,16.3c-0.8-0.1-1.6,0.2-2.2,0.8
	c-0.6-0.6-1.4-0.9-2.2-0.8l-2.3,0.3L22.3,17c-2.1,0-2.5-0.5-2.5-0.5L19.4,16l0,0.7v1.2l-1.7,0.4v13l0.2,0c1.5,0.2,3,0.3,4.5,0.4
	c1.8,0,3.6-0.2,5.4-0.4v0.6l0.1,0.1c0.5,0.2,1.1,0.4,1.7,0.4c0.6,0,1.2-0.1,1.7-0.4l0.1-0.1v-0.6c1.8,0.2,3.6,0.3,5.5,0.4
	c1.5,0,3-0.1,4.5-0.4l0.2,0v-13L40.2,17.8z M30,17.6c0.5-0.6,1.2-0.9,2-0.8l2.2,0.3l3,0.4c0.9,0.1,1.8-0.1,2.6-0.4v12.3
	c-0.8,0.3-1.7,0.4-2.6,0.4l-2.9-0.4L32,29.1c-0.7,0-1.4,0.2-2,0.6L30,17.6z M19.9,17.1c0.8,0.3,1.6,0.5,2.5,0.4l3-0.4l2.2-0.3
	c0.8-0.1,1.5,0.2,2,0.8v12.1c-0.6-0.4-1.3-0.7-2-0.6l-2.3,0.3l-2.8,0.4c-2.1,0-2.5-0.5-2.5-0.5S19.9,17.9,19.9,17.1L19.9,17.1z
	 M41.3,30.8c-1.4,0.2-2.8,0.3-4.2,0.3c-1.9,0-3.8-0.2-5.7-0.4l-0.3,0v0.8c-0.4,0.2-0.9,0.2-1.4,0.3c-0.5,0-0.9-0.1-1.3-0.2v-0.8
	l-0.3,0c-1.9,0.2-3.8,0.4-5.7,0.4c-1.4,0-2.8-0.1-4.3-0.3V18.6c0.2,0,0.9-0.2,1.2-0.3v11.1c0.1,0.3,0.6,0.8,2.9,0.8l2.9-0.4l2.2-0.3
	c0.8-0.1,1.5,0.2,2,0.8l0.1,0h0.3l0.1,0c0.5-0.6,1.2-0.9,2-0.8l2.2,0.3l3,0.4c2.3,0,2.9-0.6,3-0.7l0-11.3c0.3,0.1,0.9,0.2,1.1,0.3
	V30.8z"/>
<path class="st1" d="M23.3,19.2c-0.2,0-0.3,0.1-0.4,0.2l-0.8,1.7c0,0,0,0-0.1,0c0,0-0.1,0-0.1-0.1s-0.1-0.3-0.3-0.8l-0.3-0.6
	c-0.1-0.2-0.2-0.3-0.2-0.4c-0.1-0.1-0.2-0.2-0.3-0.2c0,0,0,0,0-0.1c0,0,0,0,0-0.1h0.1c0.1,0,0.3,0,0.4,0c0.1,0,0.3,0,0.5,0H22
	c0,0,0,0,0,0c0,0,0,0,0,0.1c-0.1,0-0.3,0-0.3,0.1c0,0,0,0.1,0,0.1l0.5,1.2l0.4-1c0-0.1,0.1-0.2,0.1-0.3c0-0.1-0.1-0.2-0.3-0.2
	c0,0,0,0,0,0c0,0,0,0,0-0.1h0.1c0.1,0,0.2,0,0.4,0c0,0,0.2,0,0.3,0L23.3,19.2C23.3,19.2,23.3,19.2,23.3,19.2
	C23.3,19.2,23.3,19.2,23.3,19.2z"/>
<path class="st1" d="M25.5,21.2c-0.6,0-1,0-1,0c-0.1,0-0.2,0-0.3,0s-0.3,0-0.5,0h-0.1c0,0,0,0,0,0c0,0,0,0,0-0.1
	c0.1,0,0.2,0,0.3-0.1c0.1-0.1,0.1-0.2,0.1-0.3c0-0.1,0-0.2,0-0.3c0-0.2,0-0.3,0-0.6v-0.3c0-0.2-0.1-0.2-0.3-0.3c0,0,0,0,0-0.1
	c0,0,0,0,0-0.1h0.1c0.1,0,0.3,0,0.7,0c0.4,0,0.7,0,0.8,0c0,0,0.2,0,0.2,0c0,0,0.1,0,0.1,0l0,0.5c0,0,0,0-0.1,0c0,0,0,0,0,0
	c-0.1-0.1-0.2-0.3-0.3-0.4c-0.1,0-0.1-0.1-0.2-0.1c0,0-0.1,0-0.3,0c-0.1,0-0.2,0-0.2,0s0,0,0,0.1c0,0,0,0.1,0,0.4V20h0.1
	c0.1,0,0.2,0,0.2,0c0.1,0,0.2-0.1,0.2-0.1c0-0.1,0-0.1,0-0.2c0,0,0,0,0.1,0c0,0,0,0,0.1,0c0,0.1,0,0.2,0,0.4c0,0.1,0,0.3,0,0.4
	c0,0,0,0-0.1,0c0,0,0,0-0.1,0c0-0.2,0-0.3-0.2-0.4c-0.1,0-0.1,0-0.2,0c0,0-0.1,0-0.1,0v0.5c0,0.1,0,0.2,0,0.2c0,0.1,0.1,0.1,0.1,0.1
	c0.1,0,0.1,0,0.2,0h0.3c0.1,0,0.2,0,0.2,0c0.1-0.1,0.3-0.3,0.3-0.4c0,0,0,0,0.1,0c0,0,0,0,0.1,0v0.5C25.6,21.2,25.6,21.2,25.5,21.2z
	"/>
<path class="st1" d="M27.9,19.8C27.9,19.8,27.9,19.8,27.9,19.8c-0.1-0.1-0.1-0.2-0.2-0.3c-0.1-0.1-0.2-0.2-0.4-0.2c0,0-0.2,0-0.2,0
	v0.9c0,0.1,0,0.3,0,0.6c0,0.2,0.1,0.2,0.4,0.3c0,0,0,0,0,0.1c0,0,0,0,0,0.1h-0.1c-0.1,0-0.4,0-0.5,0c-0.1,0-0.4,0-0.5,0
	c0,0,0,0,0-0.1c0,0,0,0,0-0.1c0.3,0,0.4-0.1,0.4-0.2c0-0.1,0-0.3,0-0.6v-0.7c0-0.1,0-0.2,0-0.3c-0.1,0-0.2,0-0.3,0
	c-0.2,0.1-0.3,0.3-0.4,0.5c0,0,0,0-0.1,0c0,0,0,0,0,0v-0.5c0,0,0-0.1,0.1-0.1s0.1,0,0.2,0c0.1,0,0.4,0,0.7,0c0.5,0,0.9,0,1,0
	c0,0,0.1,0,0.1,0c0,0,0,0.1,0,0.1L27.9,19.8C28,19.8,28,19.8,27.9,19.8z"/>
<path class="st1" d="M23.2,23C23.2,23,23.2,23,23.2,23c-0.1-0.1-0.1-0.2-0.2-0.3c-0.1-0.1-0.2-0.2-0.4-0.2c0,0-0.2,0-0.2,0v0.9
	c0,0.1,0,0.3,0,0.6c0,0.2,0.1,0.2,0.4,0.3c0,0,0,0,0,0.1c0,0,0,0,0,0.1h-0.1c-0.1,0-0.4,0-0.5,0c-0.1,0-0.4,0-0.5,0c0,0,0,0,0-0.1
	c0,0,0,0,0-0.1c0.3,0,0.4-0.1,0.4-0.2c0-0.1,0-0.3,0-0.6v-0.8c0-0.1,0-0.2,0-0.3c-0.1,0-0.2,0-0.3,0c-0.2,0.1-0.3,0.3-0.4,0.5
	c0,0,0,0-0.1,0c0,0,0,0,0,0v-0.5c0,0,0-0.1,0.1-0.1s0.1,0,0.2,0c0.1,0,0.4,0,0.7,0c0.5,0,0.9,0,0.9,0c0.1,0,0.1,0,0.1,0s0,0,0,0.1
	L23.2,23C23.2,23,23.2,23,23.2,23z"/>
<path class="st1" d="M25.6,24.4c-0.6,0-1,0-1,0s-0.2,0-0.3,0s-0.3,0-0.5,0h-0.1c0,0,0,0,0,0c0,0,0,0,0-0.1c0.1,0,0.2,0,0.3-0.1
	c0,0,0.1-0.1,0.1-0.3c0-0.1,0-0.2,0-0.3c0-0.2,0-0.3,0-0.6c0-0.2,0-0.3,0-0.3c0-0.2-0.1-0.2-0.3-0.3c0,0,0,0,0-0.1c0,0,0,0,0-0.1
	h0.1c0.1,0,0.3,0,0.7,0c0.4,0,0.7,0,0.8,0h0.2c0.1,0,0.1,0,0.1,0l0,0.5c0,0,0,0-0.1,0c0,0,0,0,0,0c-0.1-0.1-0.2-0.3-0.3-0.3
	c-0.1,0-0.1-0.1-0.2-0.1c0,0-0.1,0-0.3,0c-0.1,0-0.2,0-0.2,0s0,0,0,0.1c0,0,0,0.1,0,0.4v0.3h0.1c0.1,0,0.2,0,0.2,0
	c0.1,0,0.2-0.1,0.2-0.1c0-0.1,0-0.1,0-0.2c0,0,0,0,0.1,0c0,0,0,0,0.1,0c0,0.1,0,0.2,0,0.4c0,0.1,0,0.3,0,0.4c0,0,0,0-0.1,0
	c0,0,0,0-0.1,0c0-0.2,0-0.3-0.2-0.4c-0.1,0-0.1,0-0.2,0c0,0-0.1,0-0.1,0v0.5c0,0.1,0,0.2,0,0.2c0,0,0.1,0.1,0.1,0.1
	c0.1,0,0.1,0,0.2,0H25c0.1,0,0.1,0,0.2,0c0.1-0.1,0.3-0.3,0.3-0.4c0,0,0,0,0.1,0c0,0,0,0,0.1,0v0.5C25.7,24.4,25.6,24.4,25.6,24.4z"
	/>
<path class="st1" d="M27,24.4c-0.2,0-0.3,0-0.5-0.1c0,0,0,0-0.1,0c-0.1,0-0.1,0-0.2,0.1c0,0-0.1,0-0.1-0.1c0,0,0-0.2,0-0.3
	c0,0,0-0.3,0-0.3c0,0,0.1,0,0.1,0h0c0.1,0.1,0.1,0.3,0.2,0.4c0.1,0.1,0.3,0.2,0.5,0.2c0.1,0,0.2,0,0.3-0.1c0.1-0.1,0.1-0.2,0.1-0.2
	c0-0.1,0-0.1-0.1-0.2c-0.1-0.1-0.1-0.1-0.2-0.2c-0.1,0-0.4-0.1-0.5-0.2c-0.1,0-0.2-0.1-0.3-0.2c-0.1-0.1-0.1-0.2-0.1-0.4
	c0-0.3,0.3-0.6,0.6-0.6c0,0,0,0,0,0c0.2,0,0.3,0,0.5,0.1c0,0,0.1-0.1,0.1-0.1c0,0,0.1,0,0.1,0.1c0,0.1,0,0.2,0,0.3
	c0,0.1,0,0.3,0,0.3c0,0-0.1,0-0.1,0c0,0,0,0,0,0c-0.1-0.1-0.1-0.3-0.2-0.4c-0.1-0.1-0.3-0.2-0.4-0.2c-0.2,0-0.4,0.1-0.4,0.3
	c0,0,0,0,0,0c0,0.2,0.1,0.3,0.3,0.3c0.1,0,0.2,0.1,0.3,0.1c0.1,0,0.2,0.1,0.3,0.1c0.2,0.1,0.3,0.3,0.3,0.5
	C27.7,24.2,27.4,24.5,27,24.4C27,24.4,27,24.4,27,24.4z"/>
<path class="st1" d="M24,27.6c-0.6,0-1,0-1,0c-0.1,0-0.2,0-0.3,0s-0.3,0-0.5,0h-0.1c0,0,0,0,0,0c0,0,0,0,0-0.1c0.1,0,0.2,0,0.3-0.1
	c0-0.1,0.1-0.2,0.1-0.3c0-0.1,0-0.2,0-0.3c0-0.2,0-0.3,0-0.6v-0.3c0-0.2-0.1-0.2-0.3-0.3c0,0,0,0,0-0.1c0,0,0,0,0-0.1h0.1
	c0.1,0,0.3,0,0.7,0c0.4,0,0.7,0,0.8,0c0,0,0.2,0,0.2,0c0,0,0.1,0,0.1,0l0,0.5c0,0,0,0-0.1,0c0,0,0,0,0,0c-0.1-0.1-0.2-0.3-0.3-0.4
	c-0.1,0-0.1-0.1-0.2-0.1c0,0-0.1,0-0.3,0c-0.1,0-0.2,0-0.2,0s0,0,0,0.1c0,0,0,0.1,0,0.4v0.3h0.1c0.1,0,0.2,0,0.2,0
	c0.1,0,0.2-0.1,0.2-0.1c0-0.1,0-0.1,0-0.2c0,0,0,0,0.1,0c0,0,0,0,0.1,0c0,0.1,0,0.2,0,0.4c0,0.1,0,0.3,0,0.4c0,0,0,0-0.1,0
	c0,0,0,0-0.1,0c0-0.2,0-0.3-0.2-0.4c-0.1,0-0.1,0-0.2,0c0,0-0.1,0-0.1,0v0.5c0,0.1,0,0.2,0,0.2c0,0.1,0.1,0.1,0.1,0.1
	c0.1,0,0.1,0,0.2,0h0.3c0.1,0,0.2,0,0.2,0c0.1-0.1,0.3-0.3,0.3-0.4c0,0,0.1,0,0.1,0v0.5C24.1,27.6,24.1,27.6,24,27.6z"/>
<path class="st1" d="M27,25.7c-0.2,0-0.4,0.1-0.4,0.5v1.1c0,0,0,0.3,0,0.5c0,0-0.1,0-0.1,0c0,0,0,0-0.1,0l-1.4-1.6l0,0.3V27
	c0,0,0,0.2,0,0.2c0,0.1,0,0.2,0.1,0.2c0.1,0.1,0.2,0.1,0.3,0.1c0,0,0,0,0,0c0,0,0,0,0,0.1h-0.2c-0.1,0-0.2,0-0.4,0
	c-0.1,0-0.2,0-0.3,0h-0.1c0,0,0,0,0,0c0,0,0,0,0-0.1c0.1,0,0.2-0.1,0.3-0.1c0-0.1,0-0.2,0-0.2v-0.7c0-0.1,0-0.2,0-0.3
	c0-0.1,0-0.2-0.1-0.2c0,0-0.1-0.1-0.1-0.1c-0.1,0-0.2-0.1-0.2-0.1c0,0,0,0,0,0c0,0,0,0,0-0.1h0.1c0,0,0.3,0,0.4,0h0.1c0,0,0,0,0.1,0
	l1.1,1.2c0.1,0.1,0.2,0.2,0.2,0.3v-0.8c0-0.1,0-0.2,0-0.2c0-0.1,0-0.2-0.1-0.2c0-0.1-0.2-0.1-0.3-0.1c0,0,0,0,0-0.1c0,0,0,0,0,0h0.1
	c0.1,0,0.3,0,0.4,0C26.7,25.6,26.8,25.6,27,25.7L27,25.7C27,25.6,27,25.6,27,25.7C27,25.6,27,25.6,27,25.7z"/>
<path class="st1" d="M33.8,19.2c-0.2,0-0.4,0.1-0.4,0.5v1.1c0,0,0,0.3,0,0.5c0,0-0.1,0-0.1,0c0,0,0,0-0.1,0l-1.4-1.6l0,0.3v0.6
	c0,0,0,0.2,0,0.2c0,0.1,0,0.2,0.1,0.2c0.1,0.1,0.2,0.1,0.3,0.1c0,0,0,0,0,0c0,0,0,0,0,0.1h-0.2c-0.1,0-0.2,0-0.4,0
	c-0.1,0-0.2,0-0.3,0h-0.1c0,0,0,0,0,0c0,0,0,0,0-0.1c0.1,0,0.2-0.1,0.3-0.1c0-0.1,0-0.2,0-0.2V20c0-0.1,0-0.2,0-0.3
	c0-0.1,0-0.2-0.1-0.2c0,0-0.1-0.1-0.1-0.1c-0.1,0-0.2-0.1-0.2-0.1c0,0,0,0,0,0c0,0,0,0,0-0.1h0.1c0,0,0.3,0,0.4,0h0.1c0,0,0,0,0.1,0
	l1.1,1.2c0.1,0.1,0.2,0.2,0.2,0.3v-0.8c0-0.1,0-0.2,0-0.2c0-0.1,0-0.2-0.1-0.2c0-0.1-0.2-0.1-0.3-0.1c0,0,0,0,0-0.1c0,0,0,0,0,0h0.1
	c0.1,0,0.3,0,0.4,0C33.5,19.2,33.6,19.1,33.8,19.2L33.8,19.2C33.8,19.2,33.8,19.2,33.8,19.2C33.8,19.2,33.8,19.2,33.8,19.2z"/>
<path class="st1" d="M35.9,20.9c-0.4,0.4-1,0.4-1.4,0c0,0,0,0,0,0c-0.4-0.4-0.4-1.1,0-1.6c0.2-0.2,0.4-0.3,0.7-0.3
	c0.2,0,0.4,0.1,0.5,0.2c0.3,0.2,0.5,0.5,0.5,0.9C36.2,20.4,36.1,20.7,35.9,20.9z M35.6,19.4c-0.1-0.1-0.2-0.2-0.4-0.2
	c-0.2,0-0.3,0.1-0.4,0.2c-0.1,0.2-0.2,0.5-0.2,0.7c0,0.3,0,0.5,0.2,0.7c0.1,0.1,0.2,0.2,0.4,0.2c0.2,0,0.4-0.1,0.4-0.3
	c0.1-0.2,0.1-0.4,0.1-0.7C35.8,19.9,35.7,19.6,35.6,19.4z"/>
<path class="st1" d="M38.8,19.2c-0.2,0-0.3,0.1-0.4,0.2l-0.8,1.7c0,0,0,0-0.1,0c0,0-0.1,0-0.1-0.1s-0.1-0.3-0.3-0.8L37,19.8
	c-0.1-0.2-0.2-0.3-0.2-0.4c-0.1-0.1-0.2-0.2-0.3-0.2c0,0,0,0,0-0.1c0,0,0,0,0-0.1h0.1c0.1,0,0.3,0,0.4,0c0.1,0,0.3,0,0.5,0h0.1
	c0,0,0,0,0,0c0,0,0,0,0,0.1c-0.1,0-0.3,0-0.3,0.1c0,0,0,0.1,0,0.1l0.5,1.2l0.4-1c0-0.1,0.1-0.2,0.1-0.3c0-0.1-0.1-0.2-0.3-0.2
	c0,0,0,0,0,0c0,0,0,0,0-0.1H38c0.1,0,0.2,0,0.4,0c0,0,0.2,0,0.3,0L38.8,19.2C38.8,19.2,38.8,19.2,38.8,19.2L38.8,19.2z"/>
<path class="st1" d="M33.1,23C33.1,23,33.1,23,33.1,23c-0.1-0.1-0.1-0.2-0.2-0.3c-0.1-0.1-0.2-0.2-0.4-0.2c0,0-0.2,0-0.2,0v0.9
	c0,0.1,0,0.3,0,0.6c0,0.2,0.1,0.2,0.4,0.3c0,0,0,0,0,0.1c0,0,0,0,0,0.1h-0.1c-0.1,0-0.4,0-0.5,0c-0.1,0-0.4,0-0.5,0c0,0,0,0,0-0.1
	c0,0,0,0,0-0.1c0.3,0,0.4-0.1,0.4-0.2c0-0.1,0-0.3,0-0.6v-0.8c0-0.1,0-0.2,0-0.3c-0.1,0-0.2,0-0.3,0c-0.2,0.1-0.3,0.3-0.4,0.5
	c0,0,0,0-0.1,0c0,0,0,0,0,0v-0.5c0,0,0-0.1,0.1-0.1s0.1,0,0.2,0c0.1,0,0.4,0,0.7,0c0.5,0,0.9,0,0.9,0c0.1,0,0.1,0,0.1,0
	c0,0,0,0,0,0.1L33.1,23C33.1,23,33.1,23,33.1,23z"/>
<path class="st1" d="M35.6,24.4h-0.2c-0.1,0-0.2,0-0.3,0c-0.2,0-0.4,0-0.5,0c0,0,0,0,0-0.1c0,0,0,0,0,0c0.2,0,0.3,0,0.3-0.1
	c0-0.1,0-0.2-0.1-0.3c-0.1-0.2-0.1-0.2-0.1-0.3c0,0,0,0-0.1,0h-0.6c-0.1,0.1-0.1,0.3-0.2,0.4c0,0,0,0.1,0,0.1c0,0.1,0.1,0.1,0.3,0.1
	c0,0,0,0,0,0.1c0,0,0,0,0,0H34c-0.2,0-0.2,0-0.4,0c-0.1,0-0.4,0-0.4,0c0,0,0,0,0,0c0,0,0,0,0-0.1c0.1,0,0.2-0.1,0.3-0.2
	c0.1-0.2,0.2-0.3,0.3-0.5c0.1-0.3,0.3-0.6,0.3-0.8c0.1-0.2,0.1-0.2,0.1-0.3c0-0.1,0.1-0.2,0.1-0.2c0,0,0.1,0,0.1,0c0,0,0.1,0,0.1,0
	c0,0,0,0.1,0,0.1c0.1,0.3,0.2,0.5,0.4,0.9c0.1,0.2,0.1,0.3,0.2,0.5c0.1,0.1,0.1,0.2,0.1,0.3C35.3,24.3,35.4,24.3,35.6,24.4
	C35.6,24.3,35.6,24.3,35.6,24.4C35.6,24.4,35.6,24.4,35.6,24.4z M34.3,22.8L34.3,22.8c0,0.1-0.1,0.3-0.1,0.3
	C34,23.4,34,23.5,34,23.5h0.6C34.5,23.4,34.4,23,34.3,22.8z"/>
<path class="st1" d="M38.7,24.4l-0.8,0h-0.2c0,0,0,0,0-0.1c0,0,0,0,0-0.1c0.1,0,0.1,0,0.2,0c0.1,0,0.1-0.1,0.1-0.2v-1.5l0,0l-0.4,1
	c0,0.1-0.1,0.2-0.2,0.3c-0.1,0.2-0.1,0.3-0.2,0.5c0,0,0,0-0.1,0c0,0,0,0-0.1-0.1C37,24.2,37,24.1,37,24l-0.7-1.5h0v0.4l0,1
	c0,0.3,0.2,0.4,0.4,0.4c0,0,0,0,0,0c0,0,0,0,0,0.1c0,0-0.1,0-0.1,0s-0.2,0-0.4,0c-0.1,0-0.2,0-0.3,0h-0.1c0,0,0,0,0-0.1c0,0,0,0,0,0
	c0.1,0,0.2-0.1,0.3-0.1c0,0,0.1-0.1,0.1-0.3v-1c0-0.2,0-0.2-0.1-0.3c-0.1,0-0.2,0-0.3-0.1c0,0,0,0,0-0.1c0,0,0,0,0-0.1
	c0.1,0,0.2,0,0.4,0h0.5c0,0,0,0,0,0.1l0.6,1.4l0.1-0.3c0.1-0.2,0.2-0.6,0.4-0.9c0-0.1,0.1-0.2,0.1-0.2l0.8,0c0,0,0,0,0,0.1
	c0,0,0,0,0,0.1c-0.1,0-0.2,0-0.3,0.1c0,0,0,0.1,0,0.2v1c0,0.4,0.1,0.4,0.1,0.4c0.1,0,0.1,0,0.2,0C38.7,24.3,38.8,24.3,38.7,24.4
	C38.7,24.4,38.7,24.4,38.7,24.4z"/>
<path class="st1" d="M33.1,26.2C33,26.2,33,26.2,33.1,26.2c-0.1-0.1-0.1-0.2-0.2-0.3c-0.1-0.1-0.2-0.2-0.4-0.2c0,0-0.2,0-0.2,0v0.9
	c0,0.1,0,0.3,0,0.6c0,0.2,0.1,0.2,0.4,0.3c0,0,0,0,0,0.1c0,0,0,0,0,0.1h-0.1c-0.1,0-0.4,0-0.5,0c-0.1,0-0.4,0-0.5,0c0,0,0,0,0-0.1
	c0,0,0,0,0-0.1c0.3,0,0.4-0.1,0.4-0.2c0-0.1,0-0.3,0-0.6V26c0-0.1,0-0.2,0-0.3c-0.1,0-0.2,0-0.3,0c-0.2,0.1-0.3,0.3-0.4,0.5
	c0,0,0,0-0.1,0c0,0,0,0,0,0v-0.5c0,0,0-0.1,0.1-0.1s0.1,0,0.2,0c0.1,0,0.4,0,0.7,0c0.5,0,0.9,0,0.9,0c0.1,0,0.1,0,0.1,0
	c0,0,0,0,0,0.1L33.1,26.2C33.1,26.2,33.1,26.2,33.1,26.2z"/>
<path class="st1" d="M35.6,25.7c-0.2,0-0.3,0.1-0.4,0.2l-0.8,1.7c0,0,0,0-0.1,0c0,0-0.1,0-0.1-0.1s-0.1-0.3-0.3-0.8l-0.2-0.6
	c-0.1-0.2-0.2-0.3-0.2-0.4c-0.1-0.1-0.2-0.2-0.3-0.2c0,0,0,0,0-0.1c0,0,0,0,0-0.1h0.1c0.1,0,0.3,0,0.4,0c0.1,0,0.3,0,0.5,0h0.1
	c0,0,0,0,0,0c0,0,0,0,0,0.1c-0.1,0-0.3,0-0.3,0.1c0,0,0,0.1,0,0.1l0.5,1.2l0.4-1C35,26,35,26,35,25.9c0-0.1-0.1-0.2-0.3-0.2
	c0,0,0,0,0,0c0,0,0,0,0-0.1h0.1c0.1,0,0.2,0,0.4,0c0,0,0.2,0,0.3,0L35.6,25.7C35.6,25.6,35.6,25.6,35.6,25.7L35.6,25.7z"/>
<path class="st1" d="M38.8,27.6l-0.8,0h-0.2c0,0,0,0,0-0.1c0,0,0,0,0-0.1c0.1,0,0.1,0,0.2,0c0.1,0,0.1-0.1,0.1-0.2V26
	c0,0,0-0.2,0-0.3h0l-0.4,1c-0.1,0.1-0.1,0.2-0.2,0.3c-0.1,0.2-0.2,0.4-0.2,0.5c0,0,0,0-0.1,0s0,0-0.1-0.1c-0.1-0.1-0.1-0.2-0.1-0.3
	l-0.7-1.5h0v0.4l0,1c0,0.3,0.2,0.4,0.4,0.4c0,0,0,0,0,0c0,0,0,0,0,0.1c0,0-0.1,0-0.1,0c0,0-0.2,0-0.4,0c-0.1,0-0.2,0-0.3,0h-0.1
	c0,0,0,0,0-0.1c0,0,0,0,0,0c0.1,0,0.2-0.1,0.3-0.1c0.1-0.1,0.1-0.2,0.1-0.3v-0.5V26c0-0.2,0-0.2-0.1-0.3c-0.1,0-0.2,0-0.3-0.1
	c0,0,0,0,0-0.1c0,0,0,0,0-0.1c0.1,0,0.2,0,0.4,0h0.5c0,0,0,0,0,0.1l0.6,1.4l0.1-0.3c0.1-0.3,0.3-0.6,0.4-0.9c0-0.1,0.1-0.2,0.1-0.2
	l0.8,0c0,0,0,0,0,0.1c0,0,0,0,0,0.1c-0.1,0-0.2,0-0.3,0.1c0,0,0,0.1,0,0.2v1c0,0.4,0.1,0.4,0.1,0.4c0.1,0,0.1,0,0.2,0
	C38.8,27.5,38.8,27.5,38.8,27.6C38.8,27.6,38.8,27.6,38.8,27.6z"/>
</svg>
