<?xml version="1.0" encoding="utf-8"?>
<!-- Generator: Adobe Illustrator 26.2.1, SVG Export Plug-In . SVG Version: 6.00 Build 0)  -->
<svg version="1.1" xmlns="http://www.w3.org/2000/svg" xmlns:xlink="http://www.w3.org/1999/xlink" x="0px" y="0px"
	 viewBox="0 0 101.3 114.8" style="enable-background:new 0 0 101.3 114.8;" xml:space="preserve">
<style type="text/css">
	.st0{display:none;}
	.st1{display:inline;fill:#FFFFFF;}
	.st2{display:inline;fill:#1D2859;stroke:#1F2958;stroke-miterlimit:10;}
	.st3{display:inline;fill:#1D2859;}
	.st4{fill:#1D2859;stroke:#1F2958;stroke-width:0.75;stroke-miterlimit:10;}
	.st5{fill:#1D2859;}
	.st6{fill:#991B1E;}
</style>
<g id="Layer_3" class="st0">
	<path class="st1" d="M99.9,2.3H2.5v48.6C2.4,72.1,14.2,87.4,24,96.5c10.8,10,22.8,15.8,26.8,16.7l0.5,0.1l0.5-0.1
		c4-0.9,15.9-6.7,26.8-16.7c9.8-9.1,21.6-24.4,21.5-45.6V2.3"/>
</g>
<g id="Layer_1_copy" class="st0">
	<path class="st2" d="M10.8,73.8c-3.1-6.6-5.2-14.3-5.2-22.9V33.6h91.2v17.3c0,8.7-2.1,16.3-5.2,22.9 M51.2,34.8 M77.1,93.5
		c-0.3,0.2-0.5,0.4-0.8,0.7 M76.3,94.2c-10.8,10.1-22.1,15.1-25.1,15.9c-3-0.8-14.3-5.8-25.1-15.9c-0.3-0.2-0.5-0.5-0.8-0.7
		 M96.8,32.3H5.6V5.4h91.2V32.3z M98.1,4.1H4.3v46.8C4.2,71.4,15.6,86.3,25.2,95.1c10.4,9.7,22.2,15.4,25.9,16.2h0.1h0.1
		c3.7-0.8,15.5-6.6,25.9-16.2c9.6-8.9,21-23.8,20.9-44.2V4.1z"/>
</g>
<g id="Layer_1" class="st0">
	<path class="st3" d="M10.8,73.8c-3.1-6.6-5.2-14.3-5.2-22.9V33.6h91.2v17.3c0,8.7-2.1,16.3-5.2,22.9 M51.2,34.8 M91.6,73.8
		 M51.2,60.3 M77.1,93.5c-0.3,0.2-0.5,0.4-0.8,0.7 M76.3,94.2c-10.8,10.1-22.1,15.1-25.1,15.9c-3-0.8-14.3-5.8-25.1-15.9
		c-0.3-0.2-0.5-0.5-0.8-0.7L51.2,66 M96.8,32.3H5.6V5.4h91.2V32.3z M98.1,4.1H4.3v46.8C4.2,71.4,15.6,86.3,25.2,95.1
		c10.4,9.7,22.2,15.4,25.9,16.2h0.1h0.1c3.7-0.8,15.5-6.6,25.9-16.2c9.6-8.9,21-23.8,20.9-44.2V4.1z"/>
</g>
<g id="Layer_1_copy_2">
	<path class="st4" d="M91.6,73.8l-40.4-39l-40.4,39c-3.1-6.6-5.2-14.3-5.2-22.9V33.6h91.2v17.3C96.8,59.6,94.7,67.2,91.6,73.8
		 M78.7,77.9c-3.1,3.1-8.2,3.1-11.4,0c-3.1-3.1-3.1-8.2,0-11.4c3.1-3.1,8.2-3.1,11.4,0C81.8,69.7,81.8,74.8,78.7,77.9 M43.2,52.3
		c0-4.4,3.6-8,8-8s8,3.6,8,8s-3.6,8-8,8S43.2,56.7,43.2,52.3 M76.3,94.2c-10.8,10.1-22.1,15.1-25.1,15.9c-3-0.8-14.3-5.8-25.1-15.9
		c-0.3-0.2-0.5-0.5-0.8-0.7L51.2,66l25.9,27.5C76.8,93.7,76.6,93.9,76.3,94.2 M23.7,77.9c-3.1-3.1-3.1-8.2,0-11.4
		c3.1-3.1,8.2-3.1,11.4,0c3.1,3.1,3.1,8.2,0,11.4C31.9,81,26.8,81,23.7,77.9 M96.8,32.3H5.6V5.4h91.2V32.3z M98.1,4.1H4.3v46.8
		C4.2,71.4,15.6,86.3,25.2,95.1c10.4,9.7,22.2,15.4,25.9,16.2h0.1h0.1c3.7-0.8,15.5-6.6,25.9-16.2c9.6-8.9,21-23.8,20.9-44.2V4.1z"
		/>
</g>
<g id="Layer_1_copy_3">
	<path class="st5" d="M91.6,73.8l-40.4-39l-40.4,39c-3.1-6.6-5.2-14.3-5.2-22.9V33.6h91.2v17.3C96.8,59.6,94.7,67.2,91.6,73.8
		 M78.7,77.9c-3.1,3.1-8.2,3.1-11.4,0c-3.1-3.1-3.1-8.2,0-11.4c3.1-3.1,8.2-3.1,11.4,0C81.8,69.7,81.8,74.8,78.7,77.9 M43.2,52.3
		c0-4.4,3.6-8,8-8s8,3.6,8,8s-3.6,8-8,8S43.2,56.7,43.2,52.3 M76.3,94.2c-10.8,10.1-22.1,15.1-25.1,15.9c-3-0.8-14.3-5.8-25.1-15.9
		c-0.3-0.2-0.5-0.5-0.8-0.7L51.2,66l25.9,27.5C76.8,93.7,76.6,93.9,76.3,94.2 M23.7,77.9c-3.1-3.1-3.1-8.2,0-11.4
		c3.1-3.1,8.2-3.1,11.4,0c3.1,3.1,3.1,8.2,0,11.4C31.9,81,26.8,81,23.7,77.9 M96.8,32.3H5.6V5.4h91.2V32.3z M98.1,4.1H4.3v46.8
		C4.2,71.4,15.6,86.3,25.2,95.1c10.4,9.7,22.2,15.4,25.9,16.2h0.1h0.1c3.7-0.8,15.5-6.6,25.9-16.2c9.6-8.9,21-23.8,20.9-44.2V4.1z"
		/>
</g>
<g id="Layer_4">
	<path class="st5" d="M36.8,21.4c0.3,0,0.6,0.1,0.9,0.3c0.1,0.1,0.2,0.2,0.3,0.2c0.2,0.2,0.2,0.5,0,0.7s-0.5,0.4-0.7,0.5
		c-0.4,0.3-1,0.7-1.5,0.4c-0.2-0.2,0.2-0.5,0-1.3C35.7,21.7,36.3,21.4,36.8,21.4"/>
	<path class="st5" d="M37,12.3c-1,1-1.8,2.4-2.4,3.7c-0.5,1-0.9,2-1.1,2.9V19c-0.2,0.7-0.5,2.1-0.1,2.6c0.1,0.1,0.2,0.1,0.2,0.2
		c0.1,0.1,0.2,0.1,0.3,0.2c1,1,0.3,1.8-0.2,2.4c-0.3,0.4-0.6,0.7-0.6,1c0,0.7,0.9,1,1.1,1c0.1,0,0.2,0.1,0.2,0.3
		c0,0.2,0,0.4,0.1,0.5s0.1,0.3,0.2,0.4c0.2,0.2,0.4,0.4,0.7,0.5c0.2,0.1,0.4,0.1,0.7,0.1c1.9,0,3.4-0.9,4.7-1.8
		c0.7-0.5,1.7-1.5,2-2.2c0.1-0.2,0.1-0.4,0.1-0.6l-1.3-0.2l0,0c-0.1,0-0.2-0.1-0.3-0.3c0-0.3,0.2-0.4,0.7-0.7
		c0.1-0.1,0.3-0.2,0.4-0.3c0.7-0.5,1.3-0.9,1.6-1.1c-0.4-0.4-0.7-0.9-0.9-1.3c-0.2-0.3-0.4-0.6-0.5-0.7c-0.7-0.7-1.8-1.1-2.8-0.5
		c-0.4,0.2-0.7,0.5-1.1,0.8c-0.3,0.3-0.6,0.5-0.9,0.7c-0.1,0.1-0.3,0.1-0.4-0.1c-0.1-0.1-0.1-0.3,0-0.4c0,0,0.1-0.1,0.2-0.1
		c0.4-0.4,1.4-1.3,1.4-2C39,15.7,37.5,13.2,37,12.3 M45.3,22.5c2.3,0,4.9,1.4,7,2.6c0.4,0.2,0.8,0.4,1.1,0.6c3.5,1.8,7,3.4,10.7,2.7
		c0,0,3-0.6,4.5-3c0.9-1.5,1.1-3.3,0.5-5.5c-0.1-0.2-0.1-0.5-0.2-0.7c-0.6-2.2-1-3.5,0.1-6.3c-1.3-0.1-2,0.3-2.5,0.7
		c-0.8,0.8-1.2,2.1-1.2,3.9c0,0.2-0.1,0.3-0.3,0.3c-1.1,0.1-2.1,0.7-2.6,1.4c-0.5,0.8-0.5,1.7-0.1,2.9c0.6-0.8,1.5-1.8,2.8-1.5
		c0.8,0.2,1.3,0.8,1.5,1.6c0.2,0.9-0.1,1.9-0.7,2.4c-1.6,1.3-3.9,0.8-5.4-0.3c-1.7-1.3-3.5-2.9-5.3-4.9c-0.3-0.4-0.6-0.7-0.9-1.1
		c-1.1-1.3-2.3-2.7-3.8-3.8c-2.2-1.7-4.8-2-6.6-1.9c-1.2,0.1-3.6,0.5-5.3,1.5c0.5,1.1,1,2.3,1,3.2c0,0.2,0,0.3-0.1,0.5
		c1.2-0.7,2.6-0.2,3.4,0.7c0.2,0.2,0.4,0.5,0.6,0.8c0.3,0.5,0.7,1,1.1,1.4c0.1,0.1,0.1,0.2,0.1,0.2c0,0.1-0.1,0.2-0.1,0.2
		s-0.8,0.5-1.8,1.3c-0.1,0.1-0.3,0.2-0.4,0.3c0,0-0.1,0-0.1,0.1l0.9,0.2C43.8,22.6,44.5,22.5,45.3,22.5 M62.3,29.1
		c-3.2,0-6.2-1.4-9.2-3c-0.3-0.2-0.7-0.4-1.1-0.6c-2.4-1.3-6.1-3.3-8.5-2.1c0,0.3-0.1,0.6-0.2,0.9c-0.4,1-1.6,2.1-2.2,2.5
		c-1.3,1-3,1.9-5,1.9c-0.3,0-0.6,0-0.9-0.1c-0.4-0.1-0.7-0.4-1-0.7c-0.1-0.2-0.2-0.3-0.3-0.5s-0.1-0.3-0.1-0.5
		c-0.9-0.3-1.4-0.8-1.4-1.5c0-0.5,0.4-1,0.7-1.4c0.6-0.7,0.8-1,0.2-1.6c-0.1-0.1-0.1-0.1-0.2-0.2c-0.1-0.1-0.2-0.2-0.3-0.3
		c-0.7-0.8-0.3-2.3-0.1-3.1v-0.1c0.3-0.9,0.6-1.9,1.2-3c0.7-1.4,1.6-3.1,2.8-4.1c0.1-0.1,0.2-0.1,0.2-0.1c0.1,0,0.2,0.1,0.2,0.1
		c0,0.1,0.5,0.8,1.1,1.8c2.2-1.3,5.2-1.4,5.6-1.5c1.9-0.1,4.7,0.2,7,2c1.5,1.1,2.7,2.5,3.8,3.9c0.3,0.4,0.6,0.7,0.9,1.1
		c1.8,2,3.5,3.6,5.2,4.9c1.3,0.9,3.3,1.5,4.7,0.3c0.5-0.4,0.7-1.1,0.5-1.8c-0.2-0.6-0.5-1-1.1-1.2c-1-0.2-1.8,0.8-2.5,1.8
		c0.3,0.2,0.1,0.3,0,0.2c-0.1,0-0.2-0.1-0.2-0.2c-0.7-1.6-0.7-2.9-0.1-4c0.5-0.9,1.5-1.5,2.7-1.7c0-1.9,0.4-3.3,1.4-4.1
		c0.6-0.5,1.6-1.1,3.3-0.8c0.1,0,0.2,0.1,0.2,0.1c0.1,0.1,0.1,0.2,0,0.3c-1.2,2.9-0.9,3.9-0.3,6.3c0.1,0.2,0.1,0.4,0.2,0.7
		c0.6,2.3,0.4,4.3-0.6,5.9c-1.6,2.6-4.8,3.2-4.9,3.3C63.5,29.1,62.9,29.1,62.3,29.1"/>
	<path class="st5" d="M35,27.1c-0.3,0-0.6,0-0.8,0s-0.3-0.2-0.3-0.3c0-0.2,0.2-0.3,0.3-0.3c1.3,0.2,3.3,0,5-1.8
		c0.1-0.1,0.3-0.1,0.4,0c0.1,0.1,0.1,0.3,0,0.4C38.3,26.4,36.7,27.1,35,27.1"/>
	<path class="st5" d="M58.6,22.7L58.6,22.7c-0.3-0.1-0.3-0.3-0.3-0.4c0.3-0.7,0.4-1.3,0.1-1.7c-0.3-0.6-1-0.8-1-0.8
		c-0.1,0-0.1-0.1-0.2-0.1c0-0.1,0-0.2,0-0.2c0.1-0.3,0.3-1.1,0.2-1.5s-0.8-0.5-1-0.5c-0.1,0-0.2-0.1-0.2-0.1c0-0.1-0.1-0.2,0-0.2
		c0.1-0.2,0.3-0.9,0.1-1.2c-0.4-0.7-1.6-0.3-1.6-0.3c-0.1,0-0.2,0-0.3-0.1c-0.1-0.3-0.1-0.4-0.1-0.5c0,0,0.3-1-0.3-1.7
		c-0.7-0.8-2.3-0.3-2.4-0.3c-0.1,0-0.2,0-0.3-0.1s0-0.2,0-0.3c0,0,0.3-0.9-0.3-1.3c-0.9-0.6-2,0.2-2,0.2c-0.1,0.1-0.2,0.1-0.3,0
		c-0.1,0-0.2-0.1-0.2-0.2c0,0-0.2-1.2-1.1-1.3c-1-0.1-2.1,1-2.1,1c-0.1,0.1-0.1,0.1-0.2,0.1c-0.1,0-0.2-0.1-0.2-0.1s-0.8-1-1.7-0.9
		c-0.9,0-1.3,1-1.3,1c0,0.1-0.1,0.2-0.2,0.2c-0.1,0-0.2,0-0.3-0.1c0,0-0.9-0.9-1.8-0.5c-1.2,0.4-1.5,1.9-1.6,2.3l0,0
		c0,0.1-0.2,0.2-0.3,0.2c-0.2,0-0.2-0.2-0.2-0.3l0,0c0.1-0.5,0.5-2.2,1.9-2.7c0.9-0.3,1.7,0.1,2.1,0.4c0.2-0.4,0.7-1,1.6-1
		c0.9,0,1.6,0.6,2,0.9c0.4-0.4,1.4-1.1,2.5-0.9c0.9,0.1,1.3,0.8,1.5,1.4c0.5-0.2,1.4-0.5,2.2,0c0.6,0.4,0.7,1,0.6,1.5
		c0.6-0.1,1.8-0.2,2.5,0.5c0.6,0.6,0.6,1.4,0.5,1.8c0.5-0.1,1.3,0,1.8,0.7c0.3,0.5,0.2,1,0.1,1.4c0.4,0.1,0.9,0.3,1.1,0.8
		c0.2,0.5,0,1.2-0.1,1.6c0.3,0.1,0.8,0.4,1.1,1s0.3,1.3-0.1,2.2C58.8,22.6,58.7,22.7,58.6,22.7"/>
	<path class="st5" d="M57.2,26.5L57.2,26.5c-0.2,0-0.3-0.2-0.3-0.3c0.1-1-0.5-1.2-1-1.4c-0.1-0.1-0.3-0.1-0.4-0.1
		c-0.3-0.2-0.3-0.5-0.3-0.9s0-0.8-0.3-1.2c-0.5-0.6-1.5-0.2-1.5-0.2c-0.1,0-0.2,0-0.3,0C53,22.3,53,22.2,53,22.1
		c0,0,0.2-1.1-0.5-1.7c-0.5-0.5-1.6-0.3-1.9-0.3c-0.1,0-0.2,0-0.2-0.1c-0.1,0-0.1-0.1-0.1-0.2c0.1-0.7-0.2-1.3-0.8-1.6
		c-0.4-0.3-1-0.3-1.4-0.1c-1.2,0.6-1.6,0.7-2.8-0.2c-0.4-0.3-0.8-0.4-1.1-0.3c-0.5,0.1-0.9,0.5-1.2,1.2c-0.1,0.1-0.2,0.2-0.4,0.1
		c-0.1-0.1-0.2-0.2-0.1-0.4c0.4-0.8,0.9-1.3,1.6-1.4c0.5-0.1,1.1,0,1.6,0.3c1,0.7,1.3,0.7,2.2,0.2c0.6-0.3,1.4-0.3,2,0.1s1,1,1,1.8
		c0.5-0.1,1.4-0.1,2.1,0.4c0.6,0.5,0.7,1.3,0.7,1.8c0.5-0.1,1.2-0.1,1.7,0.5c0.4,0.5,0.5,1.1,0.5,1.5c0,0.2,0,0.4,0,0.4
		c0.1,0,0.2,0.1,0.3,0.1c0.5,0.2,1.6,0.5,1.4,2C57.5,26.3,57.3,26.5,57.2,26.5"/>
	<path class="st5" d="M29.9,23.6c0,0.1,0,0.2-0.1,0.3c-0.1,0.1-0.2,0.2-0.3,0.3c-0.3,0.2-0.6,0.5-0.6,0.9v1.3h-9.8l0,0H9.3v-1.3
		c0-0.5-0.3-0.7-0.6-0.9c-0.1-0.1-0.2-0.2-0.3-0.3c-0.1-0.1-0.1-0.2-0.1-0.3l0,0l0,0c0-0.1,0-0.2,0.1-0.3c0.1-0.1,0.2-0.2,0.3-0.3
		c0.3-0.3,0.6-0.5,0.6-1v-5.7c0-0.5-0.3-0.7-0.6-0.9c-0.1-0.1-0.2-0.2-0.3-0.3c-0.1-0.1-0.1-0.2-0.1-0.3l0,0l0,0
		c0-0.1,0-0.2,0.1-0.3c0.1-0.1,0.2-0.2,0.3-0.3c0.3-0.2,0.6-0.5,0.6-1v-1.3l0,0c0.5,0,1,0,1.5,0v13H18c0.1,0.5,0.6,0.9,1.2,0.9
		s1-0.4,1.2-0.9h7.2v-13c0.5,0,1,0,1.5,0l0,0v1.3c0,0.5,0.3,0.7,0.6,0.9c0.1,0.1,0.2,0.2,0.3,0.3c0.1,0.1,0.1,0.2,0.1,0.3l0,0l0,0
		c0,0.1,0,0.2-0.1,0.3c-0.1,0.1-0.2,0.2-0.3,0.3c-0.3,0.2-0.6,0.5-0.6,0.9v5.7c0,0.5,0.3,0.7,0.6,0.9c0.1,0.1,0.2,0.2,0.3,0.3
		S29.9,23.4,29.9,23.6L29.9,23.6L29.9,23.6z M12.3,11.6c0.3-0.1,0.6-0.3,0.9-0.5c0.6-0.4,1.2-0.8,2.1-0.8c0.8,0,1.5,0.3,2.2,0.6
		c0.5,0.2,0.9,0.4,1.3,0.4v11.4h-0.1c-0.5,0-1.3,0.3-2.2,0.6c-0.3,0.1-0.6,0.2-0.9,0.3c-0.9,0.3-1.7,0.3-2.6,0.3
		c-0.6,0-1.1,0-1.6,0.1V12C11.8,11.8,12,11.7,12.3,11.6 M20.7,10.8c0.7-0.3,1.4-0.6,2.2-0.6c0.9,0,1.5,0.4,2.2,0.8
		c0.3,0.2,0.6,0.4,0.9,0.5s0.6,0.2,0.9,0.3v12c-0.5-0.1-1-0.1-1.6-0.1c-0.9,0-1.8,0-2.6-0.3c-0.3-0.1-0.6-0.2-0.9-0.3
		c-0.9-0.3-1.7-0.5-2.2-0.6l0,0V11.2C19.8,11.2,20.2,11,20.7,10.8 M29.9,22.5c-0.2-0.2-0.4-0.3-0.4-0.5v-5.7c0-0.2,0.1-0.3,0.4-0.5
		c0.1-0.1,0.3-0.2,0.4-0.4c0.1-0.2,0.2-0.4,0.2-0.7c0-0.2-0.1-0.5-0.2-0.7s-0.3-0.3-0.4-0.4c-0.2-0.2-0.4-0.3-0.4-0.5v-2h-0.4
		c-1,0-2.2,0-2.9-0.3c-0.3-0.1-0.6-0.3-0.8-0.5c-0.6-0.4-1.4-0.9-2.5-0.9c-0.9,0-1.7,0.3-2.4,0.6c-0.5,0.2-0.9,0.4-1.2,0.4h-0.1l0,0
		h-0.1c-0.3,0-0.8-0.2-1.2-0.4c-0.7-0.3-1.5-0.6-2.4-0.6c-1.1,0-1.9,0.5-2.5,0.9c-0.3,0.2-0.6,0.4-0.8,0.5c-0.7,0.3-1.9,0.3-2.9,0.3
		H8.7v2c0,0.2-0.1,0.3-0.4,0.5C8.2,13.7,8,13.9,7.9,14c-0.1,0.2-0.2,0.4-0.2,0.7c0,0.2,0.1,0.5,0.2,0.7s0.3,0.3,0.4,0.4
		c0.2,0.2,0.4,0.3,0.4,0.5V22c0,0.2-0.1,0.3-0.4,0.5c-0.1,0.1-0.3,0.2-0.4,0.4c-0.1,0.2-0.2,0.4-0.2,0.7c0,0.2,0.1,0.5,0.2,0.7
		s0.3,0.3,0.4,0.4c0.2,0.2,0.4,0.3,0.4,0.5v1.9l0,0l0,0h10.4h10.4l0,0l0,0v-2c0-0.2,0.1-0.3,0.4-0.5c0.1-0.1,0.3-0.2,0.4-0.4
		c0.1-0.2,0.2-0.4,0.2-0.7c0-0.2-0.1-0.5-0.2-0.7C30.2,22.7,30,22.6,29.9,22.5"/>
	<path class="st5" d="M94.1,23.6c0,0.1,0,0.2-0.1,0.3c-0.1,0.1-0.2,0.2-0.3,0.3c-0.3,0.2-0.6,0.5-0.6,0.9v1.3h-9.8l0,0h-9.8v-1.3
		c0-0.5-0.3-0.7-0.6-0.9c-0.1-0.1-0.2-0.2-0.3-0.3c-0.1-0.1-0.1-0.2-0.1-0.3l0,0l0,0c0-0.1,0-0.2,0.1-0.3c0.1-0.1,0.2-0.2,0.3-0.3
		c0.3-0.2,0.6-0.5,0.6-0.9v-5.7c0-0.5-0.3-0.7-0.6-0.9c-0.1-0.1-0.2-0.2-0.3-0.3c-0.1-0.1-0.1-0.2-0.1-0.3l0,0l0,0
		c0-0.1,0-0.2,0.1-0.3c0.1-0.1,0.2-0.2,0.3-0.3c0.3-0.2,0.6-0.5,0.6-0.9v-1.3l0,0c0.5,0,1,0,1.5,0v13h7.2c0.1,0.5,0.6,0.9,1.2,0.9
		c0.5,0,1-0.4,1.1-0.9h7.2v-13c0.5,0,1,0,1.5,0l0,0v1.3c0,0.5,0.3,0.7,0.6,0.9c0.1,0.1,0.2,0.2,0.3,0.3c0.1,0.1,0.1,0.2,0.1,0.3l0,0
		l0,0c0,0.1,0,0.2-0.1,0.3c-0.1,0.1-0.2,0.2-0.3,0.3c-0.3,0.2-0.6,0.5-0.6,0.9v5.7c0,0.5,0.3,0.7,0.6,0.9c0.1,0.1,0.2,0.2,0.3,0.3
		S94.1,23.4,94.1,23.6L94.1,23.6L94.1,23.6z M76.5,11.6c0.3-0.1,0.6-0.3,0.9-0.5c0.6-0.4,1.2-0.8,2.1-0.8c0.8,0,1.5,0.3,2.2,0.6
		c0.5,0.2,0.9,0.4,1.3,0.4v11.4h-0.1c-0.5,0-1.3,0.3-2.2,0.6c-0.3,0.1-0.6,0.2-0.9,0.3c-0.9,0.3-1.7,0.3-2.6,0.3
		c-0.6,0-1.1,0-1.6,0.1V12C75.9,11.8,76.2,11.7,76.5,11.6 M84.9,10.8c0.7-0.3,1.4-0.6,2.2-0.6c0.9,0,1.5,0.4,2.2,0.8
		c0.3,0.2,0.6,0.4,0.9,0.5s0.6,0.2,0.9,0.3v12c-0.5-0.1-1-0.1-1.6-0.1c-0.9,0-1.8,0-2.6-0.3c-0.3-0.1-0.6-0.2-0.9-0.3
		c-0.9-0.3-1.7-0.5-2.2-0.6l0,0V11.2C84,11.2,84.4,11,84.9,10.8 M94.1,22.5c-0.2-0.2-0.4-0.3-0.4-0.5v-5.7c0-0.2,0.1-0.3,0.4-0.5
		c0.1-0.1,0.3-0.2,0.4-0.4c0.1-0.2,0.2-0.4,0.2-0.7c0-0.2-0.1-0.5-0.2-0.7s-0.3-0.3-0.4-0.4c-0.2-0.2-0.4-0.3-0.4-0.5v-2h-0.4
		c-1,0-2.2,0-2.9-0.3c-0.3-0.1-0.6-0.3-0.8-0.5c-0.6-0.4-1.4-0.9-2.5-0.9c-0.9,0-1.7,0.3-2.4,0.6c-0.5,0.2-0.9,0.4-1.2,0.4h-0.2l0,0
		h-0.1c-0.3,0-0.8-0.2-1.2-0.4c-0.7-0.3-1.5-0.6-2.4-0.6c-1.1,0-1.8,0.5-2.5,0.9c-0.3,0.2-0.6,0.4-0.8,0.5c-0.7,0.3-1.9,0.3-2.9,0.3
		H73v2c0,0.2-0.1,0.3-0.4,0.5c-0.1,0.1-0.3,0.3-0.4,0.4c-0.1,0.2-0.2,0.4-0.2,0.7c0,0.2,0.1,0.5,0.2,0.7s0.3,0.3,0.4,0.4
		c0.2,0.2,0.4,0.3,0.4,0.5V22c0,0.2-0.1,0.3-0.4,0.5c-0.1,0.1-0.3,0.2-0.4,0.4c-0.1,0.2-0.2,0.4-0.2,0.7c0,0.2,0.1,0.5,0.2,0.7
		s0.3,0.3,0.4,0.4c0.2,0.2,0.4,0.3,0.4,0.5v1.9l0,0l0,0h10.3h10.4l0,0l0,0v-2c0-0.2,0.1-0.3,0.4-0.5c0.1-0.1,0.3-0.2,0.4-0.4
		c0.1-0.2,0.2-0.4,0.2-0.7c0-0.2-0.1-0.5-0.2-0.7C94.4,22.7,94.2,22.6,94.1,22.5"/>
</g>
<g id="Layer_2">
	<path class="st6" d="M93.9,22.6L93.9,22.6c0.1,0.1,0.3,0.2,0.4,0.4c0.1,0.2,0.2,0.4,0.2,0.6s-0.1,0.4-0.2,0.6s-0.3,0.3-0.4,0.4
		c-0.2,0.2-0.4,0.3-0.4,0.6v1.7H83.3H73.1v-1.8c0-0.3-0.2-0.5-0.4-0.6c-0.1-0.1-0.3-0.2-0.4-0.4c-0.1-0.2-0.2-0.4-0.2-0.6
		s0.1-0.4,0.2-0.6s0.3-0.3,0.4-0.4c0.2-0.2,0.4-0.3,0.4-0.6v-5.6c0-0.3-0.2-0.4-0.4-0.6c-0.1-0.1-0.3-0.2-0.4-0.4
		c-0.1-0.2-0.2-0.4-0.2-0.6s0.1-0.4,0.2-0.6s0.3-0.3,0.4-0.4c0.2-0.2,0.4-0.3,0.4-0.6v-1.8h0.2c1.2,0,2.2,0,3-0.3
		c0.3-0.1,0.6-0.3,0.9-0.5c0.6-0.4,1.3-0.8,2.4-0.8c0.9,0,1.6,0.3,2.3,0.6c0.5,0.2,1,0.4,1.3,0.4h0.1c0.3,0,0.8-0.2,1.3-0.4
		c0.7-0.3,1.5-0.6,2.3-0.6c1.1,0,1.8,0.4,2.4,0.8c0.3,0.2,0.6,0.4,0.9,0.5c0.7,0.3,1.8,0.3,3,0.3h0.3v1.8c0,0.3,0.2,0.4,0.4,0.6
		c0.1,0.1,0.3,0.2,0.4,0.4c0.1,0.2,0.2,0.4,0.2,0.6s-0.1,0.4-0.2,0.6s-0.3,0.3-0.4,0.4c-0.2,0.2-0.4,0.3-0.4,0.6v5.6
		C93.5,22.3,93.7,22.5,93.9,22.6 M68.9,25.6c-1.6,2.5-4.6,3.1-4.8,3.2c-0.6,0.1-1.2,0.2-1.8,0.2c-3.2,0-6.1-1.4-9.1-2.9
		c-0.3-0.2-0.7-0.4-1.1-0.6c-1.9-1-4.6-2.5-6.8-2.5c-0.7,0-1.3,0.1-1.8,0.4h-0.1v0.1c0,0.3-0.1,0.6-0.2,0.8c-0.4,1-1.5,2-2.1,2.4
		c-1.3,0.9-2.9,1.9-4.9,1.9c-0.3,0-0.6,0-0.8-0.1c-0.4-0.1-0.7-0.3-0.9-0.6c-0.1-0.1-0.2-0.3-0.3-0.5c-0.1-0.1-0.1-0.3-0.1-0.4v-0.1
		H34c-0.8-0.2-1.2-0.7-1.2-1.4c0-0.5,0.3-0.9,0.7-1.3c0.5-0.6,1-1.1,0.2-1.8c-0.1-0.1-0.1-0.1-0.2-0.2c-0.1-0.1-0.2-0.2-0.3-0.3
		c-0.6-0.7-0.3-2.1,0-3v-0.1c0.2-0.9,0.6-1.9,1.2-3c0.7-1.4,1.6-3,2.8-4.1h0.1c0,0,0.1,0,0.1,0.1c0,0,0.2,0.2,0.3,0.6l0.2,0.3
		l0.1-0.4c0.3-1,0.9-1.7,1.7-1.9c0.8-0.3,1.6,0.1,2,0.4l0.2,0.1l0.1-0.2c0.2-0.4,0.7-0.9,1.4-0.9c0.8,0,1.5,0.5,1.8,0.9l0.1,0.1
		l0.1-0.1c0.4-0.3,1.3-1,2.3-0.9c0.9,0.1,1.3,0.9,1.4,1.3l0.1,0.2l0.2-0.1c0.4-0.2,1.3-0.5,2.1,0c0.5,0.3,0.6,0.9,0.5,1.3v0.2h0.2
		c0.6-0.1,1.7-0.2,2.3,0.5c0.5,0.5,0.5,1.2,0.5,1.7v0.2h0.2c0.5-0.1,1.2,0,1.6,0.6c0.3,0.4,0.2,1,0.1,1.3l-0.1,0.2H57
		c0.3,0.1,0.8,0.3,1,0.7c0.1,0.3,0.1,0.9-0.1,1.5l-0.1,0.2l0.2,0.1c0.3,0.1,0.7,0.4,1,0.9s0.2,1.1,0,1.9v0.1l0.1,0.1
		c0.7,0.6,1.4,1.2,2,1.6c1.4,1,3.5,1.5,4.9,0.3c0.5-0.4,0.8-1.3,0.6-2c-0.2-0.7-0.6-1.1-1.2-1.3c-1.1-0.2-2,0.8-2.7,1.8h-0.1
		c0,0-0.1,0-0.1-0.1c-0.6-1.5-0.7-2.8-0.1-3.8c0.5-0.8,1.5-1.4,2.6-1.6h0.2v-0.2c0-1.8,0.4-3.1,1.3-4c0.5-0.5,1.5-1,3.2-0.8
		c0,0,0.1,0,0.1,0.1v0.1c-1.2,2.9-0.9,4-0.3,6.4c0.1,0.2,0.1,0.4,0.2,0.7C70,22.1,69.9,24,68.9,25.6 M29.8,22.6L29.8,22.6
		c0.1,0.1,0.3,0.2,0.4,0.4c0.1,0.2,0.2,0.4,0.2,0.6s-0.1,0.4-0.2,0.6s-0.3,0.3-0.4,0.4c-0.3,0.1-0.5,0.3-0.5,0.5v1.7H19.1H8.9v-1.7
		c0-0.3-0.2-0.5-0.4-0.6c-0.2-0.1-0.3-0.2-0.4-0.4c-0.1-0.2-0.2-0.4-0.2-0.6s0.1-0.4,0.2-0.6c0.1-0.2,0.3-0.3,0.4-0.4
		c0.2-0.2,0.4-0.3,0.4-0.6v-5.6c0-0.3-0.2-0.4-0.4-0.6c-0.1-0.1-0.3-0.2-0.4-0.4c-0.1-0.2-0.2-0.4-0.2-0.6s0.1-0.4,0.2-0.6
		c0.1,0,0.2-0.1,0.4-0.2c0.2-0.2,0.4-0.3,0.4-0.6v-1.8h0.3c1.2,0,2.2,0,3-0.3c0.3-0.1,0.6-0.3,0.9-0.5c0.6-0.4,1.3-0.8,2.4-0.8
		c0.8,0,1.6,0.3,2.3,0.6c0.5,0.2,1,0.4,1.3,0.4h0.1c0.4,0,0.8-0.2,1.3-0.4c0.7-0.3,1.5-0.6,2.3-0.6c1.1,0,1.8,0.4,2.4,0.8
		c0.3,0.2,0.6,0.4,0.9,0.5c0.7,0.3,1.8,0.3,3,0.3h0.2v1.8c0,0.3,0.2,0.4,0.4,0.6c0.1,0.1,0.3,0.2,0.4,0.4c0.1,0.2,0.2,0.4,0.2,0.6
		s-0.1,0.4-0.2,0.6s-0.3,0.3-0.4,0.4c-0.2,0-0.4,0.2-0.4,0.5V22C29.3,22.3,29.5,22.5,29.8,22.6 M4.9,4.9c0,0,0.1,28.2,0,28.1h92.6
		V4.9H4.9z"/>
</g>
</svg>
